<svg width="1700.000000" height="500.000000" viewBox="0 0 1700 500" fill="none" xmlns="http://www.w3.org/2000/svg" xmlns:xlink="http://www.w3.org/1999/xlink">
	<desc>
			Created with Pixso.
	</desc>
	<defs>
		<filter id="filter_10_4_dd" x="1380.854492" y="391.751160" width="176.145508" height="122.350525" filterUnits="userSpaceOnUse" color-interpolation-filters="sRGB">
			<feFlood flood-opacity="0" result="BackgroundImageFix"/>
			<feColorMatrix in="SourceAlpha" type="matrix" values="0 0 0 0 0 0 0 0 0 0 0 0 0 0 0 0 0 0 127 0" result="hardAlpha"/>
			<feOffset dx="0" dy="0"/>
			<feGaussianBlur stdDeviation="5"/>
			<feComposite in2="hardAlpha" operator="out" k2="-1" k3="1"/>
			<feColorMatrix type="matrix" values="0 0 0 0 0 0 0 0 0 0 0 0 0 0 0 0 0 0 0.25 0"/>
			<feBlend mode="normal" in2="BackgroundImageFix" result="effect_dropShadow_1"/>
			<feBlend mode="normal" in="SourceGraphic" in2="effect_dropShadow_1" result="shape"/>
		</filter>
		<clipPath id="clip10_1">
			<rect id="logoInNav" rx="250.000000" width="500.000000" height="500.000000" transform="translate(1200.000000 0.000000)" fill="white" fill-opacity="0"/>
		</clipPath>
		<clipPath id="clip10_7">
			<rect id="Nav-QiuSeekBar" width="1700.000000" height="500.000000" fill="white" fill-opacity="0"/>
		</clipPath>
		<radialGradient gradientTransform="translate(1367.29 146) rotate(93.2383) scale(336.537 154.125)" cx="0.000000" cy="0.000000" r="1.000000" id="paint_angular_10_3_0" gradientUnits="userSpaceOnUse">
			<stop offset="0.010065" stop-color="#A9B7C6" stop-opacity="0.000000"/>
			<stop offset="0.988399" stop-color="#A9B7C6"/>
		</radialGradient>
	</defs>
	<rect id="Nav-QiuSeekBar" width="1700.000000" height="500.000000" fill="#FFFFFF" fill-opacity="0"/>
	<g clip-path="url(#clip10_7)">
		<g clip-path="url(#clip10_1)">
			<path id="o" d="M1518.9 244.86Q1534.86 203.4 1534.86 147.01Q1534.86 121.81 1526.37 102.33Q1518.68 84.4 1505.79 71.8Q1504.67 70.71 1503.52 69.66Q1498.16 64.69 1492.17 60.65Q1482.11 53.87 1470.26 49.74Q1468.4 49.09 1466.52 48.51Q1449.3 43.15 1430.42 43.15Q1400.98 43.15 1370.65 56.48Q1340.33 69.66 1315.43 96.62Q1290.53 123.57 1274.56 165.02Q1258.74 206.33 1258.74 262.73Q1258.74 288.66 1267.09 308.14Q1275.46 327.34 1289.53 340.42Q1289.73 340.61 1289.93 340.81Q1295.3 345.67 1301.25 349.64Q1311.42 356.42 1323.34 360.58Q1325.2 361.23 1327.09 361.82Q1344.3 367.17 1363.18 367.17Q1392.63 367.17 1422.95 353.99Q1453.27 340.81 1478.03 313.56Q1502.93 286.17 1518.9 244.86ZM1314.07 309.65Q1298.43 291.91 1298.43 260.39Q1298.43 214.24 1310.74 180.11Q1323.05 145.84 1341.94 123.42Q1360.84 100.86 1383.54 89.73Q1406.4 78.6 1427.93 78.6Q1443.59 78.6 1456.72 84.36Q1466.8 88.79 1475.39 96.62Q1477.67 98.7 1479.69 101.01Q1495.17 118.71 1495.17 149.94Q1495.17 196.23 1482.86 230.5Q1470.56 264.63 1451.66 287.19Q1432.76 309.6 1409.91 320.74Q1387.21 331.72 1365.53 331.72Q1350.02 331.72 1336.97 326.06Q1326.85 321.66 1318.21 313.85Q1316.02 311.86 1314.07 309.65Z" fill="url(#paint_angular_10_3_0)" fill-opacity="1.000000" fill-rule="evenodd"/>
			<g filter="url(#filter_10_4_dd)"/>
			<path id="矢量 2" d="M1433 102C1433 102 1457.66 107.71 1467 135C1476.34 162.28 1458 225.5 1458 225.5" stroke="#A9B7C6" stroke-opacity="0.300000" stroke-width="25.000000" stroke-linecap="round"/>
			<path id="矢量 3" d="M1361.7 332.5C1361.7 332.5 1347.7 404.5 1374.2 434C1400.7 463.5 1434.7 467.5 1468.2 467.5C1501.7 467.5 1542.82 451.87 1570.7 434C1598.57 416.12 1606.2 386 1589.2 375C1572.2 364 1527.5 392.5 1511.5 369.5C1495.5 346.5 1524.5 322.5 1543 311C1561.5 299.5 1644 264 1649.5 264" stroke="#A9B7C6" stroke-opacity="1.000000" stroke-width="20.000000"/>
		</g>
		<path id="AI 求索" d="M1014.58 101.37L986.02 101.37L986.02 135.24L901.02 135.24L901.68 141.21L901.68 147.85L944.18 148.52L986.02 148.52L986.02 174.42L946.84 174.42Q907.67 174.42 907.66 173.75Q907.62 173.75 907.58 173.74Q907 173.6 907 171.1Q907 167.78 907.66 166.45Q907.66 165.56 907.22 165.12Q907 164.9 906.66 164.79Q905.67 164.46 899.69 164.46Q891.72 163.79 886.41 163.79L881.1 163.13L880.43 169.1Q879.1 174.42 877.11 183.05Q875.12 191.02 871.8 197.66Q869.14 202.97 869.81 203.64L875.12 202.31Q879.77 200.32 885.08 197.66Q890.39 194.34 894.38 191.02L898.36 187.7L937.54 187.7Q948.83 187.7 957.8 188.03Q966.76 188.36 971.74 188.36L976.72 188.36Q976.06 189.03 940.86 215.59Q929.57 223.56 923.27 228.21Q916.96 232.85 912.97 236.18Q908.99 239.5 907.66 240.49Q906.69 241.22 906.78 241.77Q906.82 241.97 907 242.15Q908.99 243.48 916.29 249.46Q924.26 256.1 925.26 256.1Q926.25 256.1 933.56 250.78Q940.86 245.47 944.18 244.81Q948.83 244.14 962.78 243.48L969.42 243.48L977.39 244.14Q976.06 244.81 931.57 271.37Q887.07 297.93 886.41 298.6Q885.75 299.26 891.72 307.89Q897.7 316.53 898.03 316.53Q898.36 316.53 907 311.88L914.96 306.57L948.83 303.25Q956.14 302.58 965.1 301.59Q974.07 300.59 978.05 300.26L982.03 299.93L982.03 394.89L987.35 394.89Q992.45 394.89 995.71 392.44Q995.85 392.34 995.98 392.23Q999.3 390.24 1001.96 387.58Q1003.95 384.93 1005.95 380.94Q1007.94 377.62 1009.6 371.64Q1011.26 365.67 1011.26 331.8Q1011.26 297.93 1011.92 297.27Q1012.59 297.27 1040.48 294.61Q1068.37 291.29 1069.03 292.62Q1069.69 293.95 1072.35 300.59Q1074.34 307.89 1075.01 307.89Q1075.67 307.89 1089.29 299.93Q1102.9 291.96 1102.9 291.29Q1102.9 290.63 1098.91 285.98Q1094.93 281.33 1089.94 276.68Q1084.97 272.03 1079.66 268.05Q1075.01 264.73 1067.69 261.08Q1060.4 257.43 1054.42 256.1Q1048.44 254.1 1040.48 254.1L1032.51 253.44L1032.51 256.1Q1032.51 258.01 1033.43 258.7Q1033.46 258.73 1033.5 258.75Q1034.5 259.42 1039.15 262.07Q1046.44 266.06 1048.44 267.72Q1050.16 269.15 1049.91 269.84Q1049.86 269.95 1049.77 270.04Q1048.44 270.04 1007.27 274.03L966.1 278.01Q966.07 277.98 966.05 277.94Q965.72 277.18 971.74 273.69Q978.05 270.04 989.01 263.73Q999.96 257.43 1012.59 250.12Q1059.73 222.89 1061.06 221.57Q1061.73 220.9 1056.07 211.6Q1050.43 202.31 1049.11 202.31Q1047.78 202.31 1031.18 212.27L1014.58 222.23L994.65 223.56Q974.73 224.22 972.74 224.22L971.41 223.56L986.68 211.6L1002.62 199.65L999.96 197.66Q997.97 195 993.32 191.68L989.34 187.7L1096.26 187.7L1099.57 192.35Q1103.56 196.33 1108.88 199.65Q1111 200.98 1113.23 202.1Q1116.57 203.77 1120.16 204.96Q1126.14 207.62 1127.14 207.62Q1128.03 207.62 1128.12 207.35Q1128.13 207.32 1128.13 207.29Q1128.13 206.96 1126.8 203.97Q1125.48 200.98 1124.15 197.66Q1122.16 193.68 1120.82 186.37Q1118.84 179.73 1117.51 173.09L1116.84 167.11L1104.89 167.78Q1092.27 168.44 1090.94 168.77Q1090.68 168.84 1090.49 169Q1089.75 169.64 1090.28 171.76Q1090.79 173.78 1090.14 174.26Q1089.93 174.42 1089.62 174.42L1007.27 174.42L1007.94 173.42Q1008.6 172.43 1009.27 171.1Q1010.59 169.1 1012.59 163.79Q1013.91 158.48 1014.58 153.83L1015.24 148.52L1053.09 148.52L1091.61 147.85L1091.61 135.24L1014.58 135.24L1014.58 101.37ZM670.59 106.68L641.37 106.68L641.37 163.79L532.46 163.79L532.46 179.07L641.37 179.07L641.37 388.91L646.68 388.91Q649.94 388.91 652.87 387.93Q654.12 387.52 655.32 386.92Q658.64 384.93 661.62 381.94Q664.61 378.95 665.94 375.63Q667.93 371.64 669.26 367.66Q670.59 363.01 670.59 271.37L670.59 179.07L785.47 179.07L785.47 171.1L784.81 163.79L670.59 163.79L670.59 106.68ZM719.73 120.63Q711.76 118.64 705.12 118.64L698.48 117.97L698.48 119.96Q698.48 120.19 698.52 120.42Q698.86 122.11 701.8 123.28Q705.12 124.61 711.1 128.6Q716.41 132.58 723.05 138.56Q729.03 145.2 732.35 151.17L735.67 157.15Q736.33 157.15 744.96 149.18Q753.6 141.88 753.6 141.21Q753.6 140.55 749.61 136.57Q744.96 132.58 742.31 130.59Q738.32 127.93 733.01 125.28Q727.03 122.62 719.73 120.63ZM226.54 363.3Q224.26 361.02 223.01 357.7L153.28 156.49Q152.75 155.05 152.5 153.57Q151.83 149.56 153.28 145.2Q155.47 140.82 159.01 138.7Q159.77 138.25 160.59 137.89Q164.32 136.49 167.73 137.06Q169.17 137.3 170.55 137.89Q171.46 138.41 172.26 139.06Q175.59 141.72 177.19 146.53L246.92 347.07Q247.89 351.44 247.09 355.45Q246.79 356.93 246.25 358.36Q244.89 361.99 242.29 364.07Q241.09 365.04 239.61 365.67Q235.88 367.07 232.47 366.5Q231.03 366.26 229.65 365.67Q227.91 364.67 226.54 363.3ZM362.46 164.29Q358.82 167.78 351.84 167.78L343.21 167.78L343.21 337.78L351.84 337.78Q359.15 338.11 362.8 341.94Q366.45 345.75 366.45 353.05Q366.45 360.35 362.8 364.01Q359.14 367.66 351.84 367.66L305.35 367.66Q297.38 367.66 293.57 363.68Q290.08 360.03 290.08 353.05Q290.08 345.75 293.73 341.94Q297.38 338.11 304.69 337.78L313.32 337.78L313.32 167.78L305.35 167.78Q297.72 167.78 293.9 163.96Q290.08 160.14 290.08 152.5Q290.08 145.88 293.38 142.25Q297.02 138.24 304.69 137.89L351.84 137.89Q359.51 138.24 363.15 142.25Q366.45 145.88 366.45 152.5Q366.45 160.48 362.46 164.29ZM95.34 366.5Q91.94 367.07 88.21 365.67Q86.73 365.04 85.53 364.07Q82.93 361.99 81.57 358.36Q80.5 356.24 80.18 354.01Q79.71 350.66 80.9 347.07L130.71 200.32Q132.32 195.49 135.66 193.26Q136.45 192.73 137.35 192.35Q139.3 191.23 141.37 190.94Q144.23 190.53 147.31 191.68Q148.78 192.31 149.99 193.28Q152.59 195.36 153.95 198.99Q155.91 203.41 155.33 207.47Q155.13 208.9 154.61 210.28L104.81 357.7Q103.56 361.02 101.28 363.3Q99.91 364.67 98.17 365.67Q96.78 366.26 95.34 366.5ZM563.01 195Q556.37 194.34 551.06 193.68L546.41 193.01L546.41 196.33Q546.41 200.21 545.78 200.31Q545.76 200.32 545.75 200.32Q545.75 200.98 550.39 202.97Q555.04 204.96 560.35 208.28Q565.67 211.6 570.98 217.58Q576.96 222.89 580.61 228.54Q584.26 234.18 586.92 239.5L591.57 248.79L592.89 252.78L606.84 244.14L620.78 234.85L620.12 232.19Q618.79 228.87 616.14 224.89Q613.48 220.9 608.17 215.59Q602.19 210.28 596.88 206.96Q594.09 204.96 591.06 203.45Q589.04 202.44 586.92 201.64Q583.6 200.32 576.29 198.32Q568.99 196.33 563.01 195ZM749.28 194.01Q748.95 193.68 742.64 195.34Q736.33 197 731.68 199.32Q727.03 201.64 721.72 205.63Q716.41 209.61 712.43 213.6Q707.78 218.25 705.12 222.89Q701.8 227.54 699.14 232.85Q695.82 238.17 693.17 246.14Q690.51 254.1 691.18 254.77Q691.84 255.43 693.5 256.1Q695.16 256.76 703.13 248.79Q711.1 240.82 717.07 237.5Q723.05 234.18 729.69 231.53Q737 229.53 742.97 228.87L749.61 227.54L749.61 210.94Q749.61 194.34 749.28 194.01ZM612.15 263.4L593.56 263.4Q575.06 263.4 574.96 264.72L574.96 264.73L574.96 267.05Q574.96 269.38 574.63 273.36Q574.3 277.35 574.3 280.67Q572.97 296.6 572.31 305.24Q570.98 313.87 569.65 322.17Q568.32 330.47 566.33 337.11L562.35 349.07Q560.35 354.38 557.7 361.02Q554.38 367.66 549.73 372.97L545.75 378.28L547.07 380.94Q548.4 383.6 549.73 383.6Q550.39 384.26 555.37 380.61Q560.35 376.96 566.66 370.98Q572.97 365 577.62 359.03Q581.6 353.71 586.25 346.41Q590.9 339.1 595.55 330.47Q600.2 321.84 602.19 315.86L606.18 305.24Q607.5 298.6 609.5 284.65Q611.49 270.04 611.49 266.72L612.15 263.4ZM735 263.4L716.41 263.4Q698.54 263.4 698.48 264.39L698.48 264.4Q698.48 265.39 700.47 283.32Q703.13 301.25 705.78 310.55Q709.77 320.51 713.75 329.14Q718.4 338.44 722.39 345.08Q727.03 351.72 730.35 355.71Q733.68 360.35 740.98 368.32Q748.95 376.29 754.26 379.61Q759.57 384.26 760.24 384.26Q760.9 384.26 762.89 380.94L764.22 377.62L760.9 374.3Q757.58 370.32 753.6 362.35Q748.95 354.38 746.29 346.41Q743.64 337.78 741.64 329.14Q739.65 319.85 738.32 308.89Q737 297.93 736.33 280.67L735 263.4ZM948.17 323.17L920.28 323.17L920.28 378.28L925.59 377.62Q931.38 377.62 934.99 374.81Q935.11 374.72 935.22 374.63Q936.44 373.64 937.54 372.53Q939.76 370.32 941.53 367.66Q944.18 363.68 945.84 358.69Q947.5 353.71 948.17 338.44L948.17 323.17ZM1072.35 323.17L1044.46 323.17L1044.46 378.28L1049.11 378.28Q1053.76 378.28 1056.41 376.62Q1059.06 374.96 1063.05 370.98Q1066.38 367 1068.37 363.01Q1070.36 359.03 1071.36 353.71Q1072.35 348.4 1072.35 336.45L1072.35 323.17Z" fill="#A9B7C6" fill-opacity="0.700000" fill-rule="evenodd"/>
	</g>
</svg>
