<svg width="1326.000000" height="500.000000" viewBox="0 0 1326 500" fill="none" xmlns="http://www.w3.org/2000/svg" xmlns:xlink="http://www.w3.org/1999/xlink">
	<desc>
			Created with Pixso.
	</desc>
	<defs>
		<clipPath id="clip10_10">
			<rect id="Nav-SearchBar" width="1326.000000" height="500.000000" fill="white" fill-opacity="0"/>
		</clipPath>
	</defs>
	<rect id="Nav-SearchBar" width="1326.000000" height="500.000000" fill="#FFFFFF" fill-opacity="0"/>
	<g clip-path="url(#clip10_10)">
		<path id="搜索" d="M291.1 101.37L278.49 100.71L265.87 100.71L265.87 229.53L230.68 229.53L230.68 190.35L255.25 190.35L255.25 177.07L230.68 177.07L230.68 143.87L243.29 143.21L255.25 143.21L255.25 130.59L230.68 130.59L230.68 121.96L205.44 121.96L205.44 256.1L210.09 256.1Q215.4 256.1 218.72 254.1Q222.71 252.78 224.7 250.12Q227.35 246.8 228.02 244.81L229.35 242.15L265.87 242.15L265.87 269.38L205.44 269.38L205.44 282.66L219.39 282.66L222.04 287.31Q224.7 291.96 230.68 300.59Q235.99 309.22 243.96 318.52Q251.93 327.82 254.58 330.47Q257.24 333.13 257.24 333.46Q257.24 333.79 250.6 339.77Q241.3 347.07 235.32 351.72Q228.02 357.03 216.07 365Q205.44 372.31 195.48 377.62Q184.85 382.93 180.21 384.26L174.89 386.92Q174.85 386.92 174.81 386.94Q174.35 387.21 175.89 390.9Q177.55 394.89 178.21 394.89Q178.88 394.89 188.84 390.9Q199.46 387.58 211.42 382.27Q224.7 376.96 237.98 370.32Q253.25 362.35 256.57 360.35Q260.56 358.36 268.53 353.71L274.5 349.73L283.14 357.03Q293.76 365 299.07 368.32Q306.38 373.64 315.34 378.95Q324.31 384.26 334.27 389.57Q343.57 394.22 344.23 394.22Q344.89 394.22 351.53 382.27Q360.17 368.99 360.83 367.66L362.82 364.34L361.5 363.68Q360.83 363.01 348.88 358.36Q338.92 354.38 323.64 346.41Q313.02 341.1 304.39 336.45Q299.07 333.79 299.07 333.13Q299.07 332.46 301.73 329.81Q305.05 327.15 313.68 319.85Q322.32 311.21 327.63 305.24Q332.94 299.93 345.56 283.32L358.18 268.05L340.25 267.39Q322.98 267.39 321.65 268.38Q320.32 269.38 304.72 269.38Q289.18 269.38 289.11 268.39Q289.11 268.39 289.11 268.38Q289.11 267.39 289.78 265.39Q290.44 263.4 291.1 252.78L291.77 242.82L312.35 242.82L332.94 242.15L332.94 256.1L337.59 256.1Q342.08 256.1 345.95 254.55Q346.08 254.49 346.22 254.44Q350.11 252.82 352.42 249.93Q352.47 249.86 352.53 249.79Q354.85 246.8 356.18 243.48Q357.51 239.5 357.51 179.73L358.18 119.96L332.94 119.96L332.94 125.28L332.28 130.59L291.77 130.59L291.1 115.98L291.1 101.37ZM589.27 101.37L560.71 101.37L560.71 135.24L475.71 135.24L476.38 141.21L476.38 147.85L518.88 148.52L560.71 148.52L560.71 174.42L521.53 174.42Q482.37 174.42 482.35 173.75Q482.32 173.75 482.28 173.74Q481.69 173.6 481.69 171.1Q481.69 167.78 482.35 166.45Q482.35 165.56 481.91 165.12Q481.69 164.9 481.36 164.79Q480.36 164.46 474.39 164.46Q466.42 163.79 461.1 163.79L455.79 163.13L455.13 169.1Q453.8 174.42 451.81 183.05Q449.82 191.02 446.5 197.66Q443.84 202.97 444.5 203.64L449.82 202.31Q454.46 200.32 459.78 197.66Q465.09 194.34 469.07 191.02L473.06 187.7L512.24 187.7Q523.53 187.7 532.49 188.03Q541.46 188.36 546.44 188.36L551.42 188.36Q550.75 189.03 515.56 215.59Q504.27 223.56 497.96 228.21Q491.65 232.85 487.67 236.18Q483.68 239.5 482.35 240.49Q481.39 241.22 481.48 241.77Q481.51 241.97 481.69 242.15Q483.68 243.48 490.99 249.46Q498.96 256.1 499.95 256.1Q500.95 256.1 508.25 250.78Q515.56 245.47 518.88 244.81Q523.53 244.14 537.47 243.48L544.11 243.48L552.08 244.14Q550.75 244.81 506.26 271.37Q461.77 297.93 461.1 298.6Q460.44 299.26 466.42 307.89Q472.39 316.53 472.73 316.53Q473.06 316.53 481.69 311.88L489.66 306.57L523.53 303.25Q530.83 302.58 539.8 301.59Q548.76 300.59 552.75 300.26L556.73 299.93L556.73 394.89L562.04 394.89Q567.14 394.89 570.41 392.44Q570.54 392.34 570.68 392.23Q574 390.24 576.65 387.58Q578.64 384.93 580.64 380.94Q582.63 377.62 584.29 371.64Q585.95 365.67 585.95 331.8Q585.95 297.93 586.61 297.27Q587.28 297.27 615.17 294.61Q643.06 291.29 643.72 292.62Q644.39 293.95 647.04 300.59Q649.03 307.89 649.7 307.89Q650.36 307.89 663.98 299.93Q677.59 291.96 677.59 291.29Q677.59 290.63 673.6 285.98Q669.62 281.33 664.64 276.68Q659.66 272.03 654.35 268.05Q649.7 264.73 642.39 261.08Q635.09 257.43 629.11 256.1Q623.14 254.1 615.17 254.1L607.2 253.44L607.2 256.1Q607.2 258.01 608.12 258.7Q608.15 258.73 608.19 258.75Q609.19 259.42 613.84 262.07Q621.14 266.06 623.14 267.72Q624.86 269.15 624.6 269.84Q624.56 269.95 624.46 270.04Q623.14 270.04 581.96 274.03L540.79 278.01Q540.76 277.98 540.75 277.94Q540.42 277.18 546.44 273.69Q552.75 270.04 563.7 263.73Q574.66 257.43 587.28 250.12Q634.43 222.89 635.75 221.57Q636.42 220.9 630.77 211.6Q625.13 202.31 623.8 202.31Q622.47 202.31 605.87 212.27L589.27 222.23L569.35 223.56Q549.43 224.22 547.43 224.22L546.1 223.56L561.38 211.6L577.32 199.65L574.66 197.66Q572.67 195 568.02 191.68L564.03 187.7L670.95 187.7L674.27 192.35Q678.25 196.33 683.57 199.65Q685.69 200.98 687.92 202.1Q691.27 203.77 694.85 204.96Q700.83 207.62 701.83 207.62Q702.72 207.62 702.81 207.35Q702.82 207.32 702.82 207.29Q702.82 206.96 701.5 203.97Q700.17 200.98 698.84 197.66Q696.85 193.68 695.52 186.37Q693.53 179.73 692.2 173.09L691.53 167.11L679.58 167.78Q666.96 168.44 665.64 168.77Q665.37 168.84 665.18 169Q664.44 169.64 664.97 171.76Q665.48 173.78 664.83 174.26Q664.63 174.42 664.31 174.42L581.96 174.42L582.63 173.42Q583.29 172.43 583.96 171.1Q585.28 169.1 587.28 163.79Q588.6 158.48 589.27 153.83L589.93 148.52L627.78 148.52L666.3 147.85L666.3 135.24L589.27 135.24L589.27 101.37ZM165.6 103.36L136.38 103.36L136.38 171.1L103.84 171.1L103.84 184.38L136.38 184.38L136.38 263.4L133.72 265.39Q131.07 266.72 119.78 273.36L108.49 279.34L108.49 288.64Q108.49 297.89 109.15 297.93Q109.15 297.93 109.15 297.93Q109.82 297.93 122.43 290.63Q135.05 283.99 135.71 283.99Q136.38 284 136.38 338.44L136.38 392.23L139.03 392.23Q140.36 391.57 145.01 389.57Q148.33 387.58 152.32 384.93Q155.64 381.6 158.29 377.62Q160.95 373.64 162.94 367.66L164.93 361.68L165.6 314.53L165.6 268.05L177.55 261.41L188.84 255.43L188.84 245.47Q188.84 236.22 188.18 236.18Q188.18 236.18 188.18 236.18Q187.51 236.18 176.89 241.82Q166.26 247.46 165.93 247.46Q165.6 247.46 165.6 216.25L165.6 184.38L178.88 183.71L191.5 183.71L191.5 177.74L192.16 171.1L165.6 171.1L165.6 103.36ZM291.44 144.87Q291.77 143.87 312.35 143.87L332.94 143.87L332.94 177.07L301.73 177.07L301.73 190.35L332.94 190.35L332.94 229.53L312.35 229.53L291.77 228.87L291.1 187.7Q291.1 145.86 291.44 144.87ZM231.34 282.66L309.7 282.66L305.05 287.97Q300.4 291.96 287.78 305.24Q275.83 317.19 274.5 317.19Q273.18 317.19 263.88 310.55Q255.25 303.91 245.28 295.94Q235.99 287.31 234 285.32L231.34 282.66ZM522.86 323.17L494.97 323.17L494.97 378.28L500.28 377.62Q506.08 377.62 509.69 374.81Q509.8 374.72 509.91 374.63Q511.13 373.64 512.24 372.53Q514.45 370.32 516.22 367.66Q518.88 363.68 520.54 358.69Q522.2 353.71 522.86 338.44L522.86 323.17ZM647.04 323.17L619.15 323.17L619.15 378.28L623.8 378.28Q628.45 378.28 631.1 376.62Q633.76 374.96 637.75 370.98Q641.07 367 643.06 363.01Q645.05 359.03 646.05 353.71Q647.04 348.4 647.04 336.45L647.04 323.17Z" fill="#A9B7C6" fill-opacity="0.700000" fill-rule="evenodd"/>
		<path id="椭圆 4" d="M1037 429C994.58 429 955.57 414.28 924.79 389.69C891.61 363.28 870.28 327.45 861.54 289.03C852.07 247.7 857.73 206.39 874.86 170.91C893.22 132.68 923.41 103.92 958.92 86.85C997.11 68.42 1038.65 64.75 1077.05 73.55C1118.4 82.95 1153.17 105.97 1177.69 136.8C1204.17 169.93 1217 209.6 1217 249L1172 249C1172 217.19 1160.97 187.93 1142.52 164.84C1122.71 139.95 1095.84 123.96 1067.03 117.41C1036.03 110.3 1005.05 114.55 978.43 127.39C949.76 141.17 928.19 163.8 915.39 190.44C901.56 219.08 898.81 250.23 905.41 279.04C912.46 310.05 929.73 336.12 952.85 354.52C977.69 374.38 1007.46 383.99 1037 384L1037 429Z" fill="#A9B7C6" fill-opacity="1.000000" fill-rule="evenodd"/>
		<path id="直线 1" d="M1089.22 283.54Q1092.64 278.5 1094.92 272.99Q1099.5 261.94 1099.5 249Q1099.5 236.05 1094.92 225Q1090.35 213.95 1081.18 204.8Q1072.04 195.65 1060.99 191.07Q1049.93 186.5 1037 186.5Q1024.06 186.5 1013.01 191.07Q1001.96 195.65 992.8 204.8Q983.65 213.95 979.07 225Q974.5 236.05 974.5 249Q974.5 261.94 979.07 272.99Q983.65 284.04 992.8 293.19Q1001.96 302.34 1013.01 306.92Q1024.06 311.5 1037 311.5Q1049.93 311.5 1060.99 306.92L1060.99 306.92Q1066.5 304.64 1071.54 301.22L1204.16 433.83C1209.11 438.78 1216.89 438.78 1221.84 433.83C1226.79 428.88 1226.79 421.11 1221.84 416.16L1089.22 283.54ZM1070.92 265.24Q1068.23 270.8 1063.52 275.51Q1058.8 280.23 1053.25 282.92Q1052.32 283.36 1051.4 283.75Q1044.77 286.5 1037 286.5Q1029.23 286.5 1022.6 283.75Q1015.98 281 1010.48 275.51Q1004.99 270.02 1002.25 263.39Q999.5 256.76 999.5 249Q999.5 241.23 1002.25 234.6Q1004.99 227.97 1010.48 222.48Q1015.98 216.99 1022.6 214.24Q1029.23 211.5 1037 211.5Q1044.77 211.5 1051.4 214.24Q1058.02 216.99 1063.52 222.48Q1069.01 227.97 1071.75 234.6Q1074.5 241.23 1074.5 249Q1074.5 256.76 1071.75 263.39Q1071.37 264.33 1070.92 265.24Z" fill="#A9B7C6" fill-opacity="0.700000" fill-rule="evenodd"/>
	</g>
</svg>
