<svg width="500.000000" height="500.000000" viewBox="0 0 500 500" fill="none" xmlns="http://www.w3.org/2000/svg" xmlns:xlink="http://www.w3.org/1999/xlink">
	<desc>
			Created with Pixso.
	</desc>
	<defs>
		<filter id="filter_10_4_dd" x="180.854614" y="391.751099" width="176.145386" height="122.350464" filterUnits="userSpaceOnUse" color-interpolation-filters="sRGB">
			<feFlood flood-opacity="0" result="BackgroundImageFix"/>
			<feColorMatrix in="SourceAlpha" type="matrix" values="0 0 0 0 0 0 0 0 0 0 0 0 0 0 0 0 0 0 127 0" result="hardAlpha"/>
			<feOffset dx="0" dy="0"/>
			<feGaussianBlur stdDeviation="5"/>
			<feComposite in2="hardAlpha" operator="out" k2="-1" k3="1"/>
			<feColorMatrix type="matrix" values="0 0 0 0 0 0 0 0 0 0 0 0 0 0 0 0 0 0 0.25 0"/>
			<feBlend mode="normal" in2="BackgroundImageFix" result="effect_dropShadow_1"/>
			<feBlend mode="normal" in="SourceGraphic" in2="effect_dropShadow_1" result="shape"/>
		</filter>
		<clipPath id="clip10_1">
			<rect id="logoInNav" rx="250.000000" width="500.000000" height="500.000000" fill="white" fill-opacity="0"/>
		</clipPath>
		<radialGradient gradientTransform="translate(167.294 146) rotate(93.2383) scale(336.537 154.125)" cx="0.000000" cy="0.000000" r="1.000000" id="paint_angular_10_3_0" gradientUnits="userSpaceOnUse">
			<stop offset="0.010065" stop-color="#A9B7C6" stop-opacity="0.000000"/>
			<stop offset="0.988399" stop-color="#A9B7C6"/>
		</radialGradient>
	</defs>
	<g clip-path="url(#clip10_1)">
		<path id="o" d="M318.89 244.86Q334.86 203.4 334.86 147.01Q334.86 121.81 326.36 102.33Q318.68 84.4 305.78 71.8Q304.67 70.71 303.51 69.66Q298.16 64.69 292.17 60.65Q282.1 53.87 270.26 49.74Q268.4 49.09 266.51 48.51Q249.3 43.15 230.42 43.15Q200.97 43.15 170.65 56.48Q140.33 69.66 115.43 96.62Q90.52 123.57 74.56 165.02Q58.74 206.33 58.74 262.73Q58.74 288.66 67.08 308.14Q75.46 327.34 89.52 340.42Q89.73 340.61 89.94 340.81Q95.29 345.67 101.25 349.64Q111.42 356.42 123.34 360.58Q125.2 361.23 127.08 361.82Q144.3 367.17 163.18 367.17Q192.62 367.17 222.94 353.99Q253.27 340.81 278.02 313.56Q302.93 286.17 318.89 244.86ZM114.07 309.65Q98.43 291.91 98.43 260.39Q98.43 214.24 110.74 180.11Q123.04 145.84 141.94 123.42Q160.84 100.86 183.54 89.73Q206.39 78.6 227.93 78.6Q243.58 78.6 256.71 84.36Q266.79 88.79 275.39 96.62Q277.67 98.7 279.69 101.01Q295.16 118.71 295.16 149.94Q295.16 196.23 282.86 230.5Q270.55 264.63 251.66 287.19Q232.76 309.6 209.91 320.74Q187.2 331.72 165.52 331.72Q150.01 331.72 136.97 326.06Q126.85 321.66 118.21 313.85Q116.02 311.86 114.07 309.65Z" fill="url(#paint_angular_10_3_0)" fill-opacity="1.000000" fill-rule="evenodd"/>
		<g filter="url(#filter_10_4_dd)"/>
		<path id="矢量 2" d="M233 102C233 102 257.65 107.71 267 135C276.34 162.28 258 225.5 258 225.5" stroke="#A9B7C6" stroke-opacity="0.300000" stroke-width="25.000000" stroke-linecap="round"/>
		<path id="矢量 3" d="M161.69 332.5C161.69 332.5 147.69 404.5 174.19 434C200.69 463.5 234.69 467.5 268.19 467.5C301.69 467.5 342.82 451.87 370.69 434C398.57 416.12 406.19 386 389.19 375C372.19 364 327.5 392.5 311.5 369.5C295.5 346.5 324.5 322.5 343 311C361.5 299.5 444 264 449.5 264" stroke="#A9B7C6" stroke-opacity="1.000000" stroke-width="20.000000"/>
	</g>
</svg>
